<?xml version="1.0" encoding="utf-8"?>
<!-- Generator: Adobe Illustrator 25.0.1, SVG Export Plug-In . SVG Version: 6.00 Build 0)  -->
<svg version="1.1" id="Layer_1" xmlns="http://www.w3.org/2000/svg" xmlns:xlink="http://www.w3.org/1999/xlink" x="0px" y="0px"
	 viewBox="0 0 343.2 91.8" style="enable-background:new 0 0 343.2 91.8;" xml:space="preserve">
<g id="Layer_1_1_">
	<path d="M171.8,19.7v52.5c0,0.4-0.3,0.7-0.8,0.8h-5.5c-2.5,0-4.9-1.3-6.3-3.4l-24.8-38.3l0.9,19.1v21.8c0,0.4-0.3,0.7-0.8,0.8h-7.2
		c-0.4,0-0.7-0.3-0.8-0.8V19.7c0-0.4,0.3-0.7,0.8-0.8h5.4c2.5,0,4.9,1.3,6.3,3.4l24.8,38.2l-0.8-19.1V19.7c0-0.4,0.3-0.8,0.8-0.8
		h7.2C171.5,19,171.8,19.3,171.8,19.7z"/>
	<path d="M245.6,72.9H238c-0.4,0-0.7-0.3-0.7-0.8c0-0.1,0-0.2,0-0.2l20.2-52.3c0.2-0.4,0.6-0.7,1.1-0.7h9.6c0.5,0,0.9,0.3,1,0.7
		l20.2,52.3c0.1,0.4-0.1,0.8-0.5,1c-0.1,0-0.2,0-0.2,0h-7.6c-0.3,0-0.6-0.2-0.7-0.5l-16.3-43c-0.1-0.4-0.6-0.6-1-0.4
		c-0.2,0.1-0.4,0.2-0.4,0.4l-16.3,43C246.2,72.7,245.9,72.9,245.6,72.9z"/>
	<path d="M342.5,71.7l-15.2-19.4c8.6-1.6,13.6-7.4,13.6-16.3c0-10.2-6.6-17.1-18.4-17.1h-21.2c-0.6,0-1.1,0.5-1.1,1.1l0,0
		c0,4,3.2,7.2,7.2,7.2l0,0h14.2c7.1,0,10.5,3.6,10.5,8.9s-3.3,9-10.5,9h-20.3c-0.6,0-1.1,0.5-1.1,1.1v26c0,0.4,0.3,0.8,0.8,0.8h7.2
		c0.4,0,0.7-0.3,0.8-0.8V52.8h8.3L330.4,70c1.4,1.9,3.7,3,6,2.9h5.5c0.4,0,0.7-0.4,0.7-0.8C342.6,72,342.5,71.8,342.5,71.7z"/>
	<path d="M222.8,18.9h-33.5c-0.6,0-1,0.4-1,1l0,0c0,4,3.3,7.3,7.3,7.3h27.2c0.4,0,0.7-0.3,0.8-0.7c0,0,0,0,0,0v-6.8
		C223.5,19.3,223.2,18.9,222.8,18.9z M222.8,64.6h-25c-0.4,0-0.7-0.3-0.8-0.8V50.3c0-0.4,0.3-0.8,0.8-0.8h23.1
		c0.4,0,0.8-0.3,0.8-0.8v-6.9c0-0.4-0.3-0.8-0.8-0.8h-31.5c-0.6,0-1.1,0.5-1.1,1.1v29.5c0,0.6,0.5,1.1,1.1,1.1h33.4
		c0.4,0,0.8-0.3,0.8-0.8v-6.8C223.5,64.9,223.2,64.6,222.8,64.6z"/>
	<path d="M72.9,5.5L54,33.4c-0.7,0.9-0.5,2.1,0.4,2.8c0.8,0.6,1.9,0.5,2.6-0.2l18.5-16c0.3-0.3,0.8-0.3,1,0c0.1,0.1,0.2,0.3,0.2,0.5
		v50.3c0,0.4-0.3,0.7-0.8,0.7c-0.2,0-0.4-0.1-0.6-0.3l-56-67c-1.8-2.2-4.5-3.4-7.3-3.5h-2c-5.3,0-9.6,4.3-9.6,9.6l0,0v70.8
		c0,5.3,4.3,9.6,9.6,9.6l0,0c3.3,0,6.4-1.7,8.2-4.6l18.8-27.9c0.7-0.9,0.5-2.1-0.4-2.8c-0.8-0.6-1.9-0.5-2.6,0.2l-18.5,16
		c-0.3,0.3-0.8,0.3-1,0c-0.1-0.1-0.2-0.3-0.2-0.5V21c0-0.4,0.3-0.7,0.8-0.7c0.2,0,0.4,0.1,0.6,0.3l56,67c1.8,2.2,4.5,3.4,7.3,3.4h2
		c5.3,0,9.6-4.3,9.6-9.6l0,0V10.5c0-5.3-4.3-9.6-9.6-9.6c0,0,0,0-0.1,0l0,0C77.7,0.9,74.6,2.7,72.9,5.5z"/>
</g>
</svg>
