<svg width="32" height="32" viewBox="0 0 32 32" fill="none" xmlns="http://www.w3.org/2000/svg">
<path opacity="0.5" d="M30 4V28H2V4H30ZM32 2H0V30H32V2Z" fill="black"/>
<path d="M23 23C26.1556 23 28.8444 25.1111 29.7111 28H16.2889C17.1556 25.1111 19.8444 23 23 23ZM23 21C18.0222 21 14 25.0222 14 30H32C32 25.0222 27.9778 21 23 21Z" fill="black"/>
<path d="M22.9111 12C24.5556 12 25.9111 13.3556 25.9111 15C25.9111 16.6444 24.5778 18 22.9111 18C21.2445 18 19.9111 16.6444 19.9111 15C19.9111 13.3556 21.2667 12 22.9111 12ZM22.9111 10C20.1556 10 17.9111 12.2444 17.9111 15C17.9111 17.7556 20.1556 20 22.9111 20C25.6667 20 27.9111 17.7556 27.9111 15C27.9111 12.2444 25.6889 10 22.9111 10Z" fill="black"/>
</svg>
