<svg width="32" height="32" viewBox="0 0 32 32" fill="none" xmlns="http://www.w3.org/2000/svg">
<path opacity="0.5" d="M22.8444 4L29.7111 16L22.8444 28H9.15556L2.31111 16L9.15556 4H22.8444ZM24 2H8L0 16L8 30H24L32 16L24 2Z" fill="black"/>
<path d="M16 23.8889C18.6667 23.8889 20.9334 25.6 21.7556 28H10.2445C11.0667 25.6223 13.3334 23.8889 16 23.8889ZM16 21.8889C11.5334 21.8889 7.91113 25.5111 7.91113 30H24.1111C24.0889 25.5334 20.4667 21.8889 16 21.8889Z" fill="black"/>
<path d="M15.9332 14C17.311 14 18.4221 15.1111 18.4221 16.4889C18.4221 17.8667 17.311 18.9778 15.9332 18.9778C14.5554 18.9778 13.4443 17.8667 13.4443 16.4889C13.4443 15.1111 14.5554 14 15.9332 14ZM15.9332 12C13.4443 12 11.4443 14.0222 11.4443 16.4889C11.4443 18.9556 13.4666 20.9778 15.9332 20.9778C18.4221 20.9778 20.4221 18.9556 20.4221 16.4889C20.4221 14.0222 18.3999 12 15.9332 12Z" fill="black"/>
</svg>
